<?xml version="1.0" encoding="UTF-8" standalone="no"?>
<svg width="512" height="512" viewBox="0 0 512 512" fill="none" xmlns="http://www.w3.org/2000/svg">
  <!-- Background Circle -->
  <circle cx="256" cy="256" r="256" fill="#000000"/>

  <!-- Eagle Shield Background -->
  <path
    d="M256 64C138.3 64 43 159.3 43 277C43 394.7 138.3 490 256 490C373.7 490 469 394.7 469 277C469 159.3 373.7 64 256 64Z"
    fill="#000000"
  />

  <!-- Eagle Wings -->
  <path
    d="M405 224C405 224 362 181 256 181C150 181 107 224 107 224C107 224 150 160 256 160C362 160 405 224 405 224Z"
    fill="#1E56B1"
  />

  <!-- Eagle Body -->
  <path
    d="M256 203C220.7 203 192 231.7 192 267V352H320V267C320 231.7 291.3 203 256 203Z"
    fill="#1E56B1"
  />

  <!-- Eagle Head -->
  <path
    d="M256 181C244.4 181 235 190.4 235 202C235 213.6 244.4 223 256 223C267.6 223 277 213.6 277 202C277 190.4 267.6 181 256 181Z"
    fill="#1E56B1"
  />

  <!-- Shield on Eagle's Chest -->
  <path
    d="M256 245C247.2 245 240 252.2 240 261V309H272V261C272 252.2 264.8 245 256 245Z"
    fill="#B22234"
  />

  <!-- Stars -->
  <circle cx="213" cy="267" r="10" fill="white" />
  <circle cx="299" cy="267" r="10" fill="#B22234" />
  <circle cx="256" cy="267" r="10" fill="white" />

  <!-- Red Stripes -->
  <rect x="128" y="384" width="256" height="16" fill="#B22234" />
  <rect x="128" y="416" width="256" height="16" fill="#B22234" />
  <rect x="128" y="448" width="256" height="16" fill="#B22234" />

  <!-- Gold Accent -->
  <path
    d="M256 480C361.9 480 448 393.9 448 288C448 182.1 361.9 96 256 96C150.1 96 64 182.1 64 288C64 393.9 150.1 480 256 480Z"
    fill="none"
    stroke="#F4C430"
    stroke-width="4"
  />
</svg>
