<?xml version="1.0" encoding="UTF-8" standalone="no"?>
<svg width="512" height="512" viewBox="0 0 512 512" fill="none" xmlns="http://www.w3.org/2000/svg">
  <!-- Background Circle -->
  <circle cx="256" cy="256" r="256" fill="#000000"/>
  
  <!-- Outer Gold Ring -->
  <circle cx="256" cy="256" r="240" fill="none" stroke="#F4C430" stroke-width="8"/>
  
  <!-- Inner Gold Circle -->
  <circle cx="256" cy="256" r="200" fill="#F4C430" fill-opacity="0.1"/>
  
  <!-- Stylized A for Adeleke -->
  <path 
    d="M256 96L352 352H160L256 96Z" 
    fill="none"
    stroke="#F4C430"
    stroke-width="12"
    stroke-linejoin="round"
  />
  
  <!-- Horizontal Bar in A -->
  <rect x="192" y="256" width="128" height="12" fill="#F4C430"/>
  
  <!-- Immigration Services Text Path -->
  <path 
    id="textPath" 
    d="M256,400 a144,144 0 1,1 0.1,0" 
    fill="none"
  />
  
  <!-- Immigration Services Text -->
  <text>
    <textPath href="#textPath" startOffset="50%" text-anchor="middle" font-family="Arial, sans-serif" font-size="24" font-weight="bold" fill="#F4C430">
      IMMIGRATION SERVICES
    </textPath>
  </text>
  
  <!-- Gold Accents -->
  <circle cx="256" cy="96" r="12" fill="#F4C430"/>
  <circle cx="160" cy="352" r="12" fill="#F4C430"/>
  <circle cx="352" cy="352" r="12" fill="#F4C430"/>
  
  <!-- Gold Stars -->
  <g fill="#F4C430">
    <!-- Top Star -->
    <path d="M256 64L261 74H272L263 81L268 91L256 84L244 91L249 81L240 74H251L256 64Z"/>
    
    <!-- Left Star -->
    <path d="M128 256L133 266H144L135 273L140 283L128 276L116 283L121 273L112 266H123L128 256Z"/>
    
    <!-- Right Star -->
    <path d="M384 256L389 266H400L391 273L396 283L384 276L372 283L377 273L368 266H379L384 256Z"/>
    
    <!-- Bottom Left Star -->
    <path d="M192 384L197 394H208L199 401L204 411L192 404L180 411L185 401L176 394H187L192 384Z"/>
    
    <!-- Bottom Right Star -->
    <path d="M320 384L325 394H336L327 401L332 411L320 404L308 411L313 401L304 394H315L320 384Z"/>
  </g>
  
  <!-- Gold Gradient Overlay -->
  <defs>
    <radialGradient id="goldGradient" cx="0.5" cy="0.5" r="0.5" fx="0.5" fy="0.5">
      <stop offset="0%" stop-color="#F4C430" stop-opacity="0.3"/>
      <stop offset="100%" stop-color="#F4C430" stop-opacity="0"/>
    </radialGradient>
  </defs>
  
  <circle cx="256" cy="256" r="180" fill="url(#goldGradient)"/>
</svg>
